<svg width="157" height="40" viewBox="0 0 157 40" fill="none" xmlns="http://www.w3.org/2000/svg">
<g id="Download_on_the_Mac_App_Store_Badge_US-UK_RGB_wht_092917 1" clip-path="url(#clip0_8029_6683)">
<g id="Group">
<g id="Group_2">
<path id="Vector" d="M146.571 0.00013H9.53468C9.16798 0.00013 8.80568 0.00013 8.43995 0.00213C8.1338 0.00413 7.83009 0.00994 7.521 0.01483C6.84951 0.0227318 6.17961 0.0818063 5.5171 0.19154C4.85552 0.303663 4.21467 0.515046 3.61622 0.81854C3.0185 1.1246 2.47235 1.5223 1.99757 1.9972C1.5203 2.47077 1.12246 3.01815 0.81935 3.61829C0.5154 4.21724 0.304641 4.85907 0.19435 5.52161C0.0830109 6.18332 0.0230984 6.85265 0.01515 7.52361C0.00587 7.83021 0.00489 8.13783 0 8.44447V31.5587C0.00489 31.8692 0.00587 32.17 0.01514 32.4806C0.0230908 33.1516 0.0830034 33.8209 0.19434 34.4825C0.304326 35.1455 0.515098 35.7877 0.81934 36.3868C1.12232 36.985 1.52022 37.5302 1.99757 38.0011C2.47054 38.4781 3.01705 38.8761 3.61622 39.1798C4.21467 39.4841 4.85545 39.6968 5.5171 39.8106C6.17972 39.9195 6.84956 39.9786 7.521 39.9874C7.83009 39.9942 8.1338 39.9981 8.43995 39.9981C8.80567 40.0001 9.168 40.0001 9.53468 40.0001H146.571C146.931 40.0001 147.296 40.0001 147.655 39.9981C147.96 39.9981 148.272 39.9942 148.577 39.9874C149.247 39.9791 149.916 39.92 150.577 39.8106C151.241 39.696 151.884 39.4834 152.485 39.1798C153.084 38.8759 153.63 38.478 154.103 38.0011C154.579 37.5284 154.977 36.9836 155.284 36.3868C155.586 35.7872 155.795 35.1451 155.903 34.4825C156.015 33.8208 156.077 33.1516 156.089 32.4806C156.093 32.17 156.093 31.8692 156.093 31.5587C156.101 31.1954 156.101 30.8341 156.101 30.4649V9.53626C156.101 9.17005 156.101 8.80677 156.093 8.44447C156.093 8.13783 156.093 7.83021 156.089 7.52357C156.077 6.85255 156.015 6.18337 155.903 5.52157C155.795 4.85941 155.586 4.21763 155.284 3.61825C154.667 2.41533 153.688 1.43616 152.485 0.81845C151.884 0.515697 151.241 0.30437 150.577 0.19145C149.916 0.0812328 149.247 0.0221378 148.577 0.01469C148.272 0.00981 147.96 0.00395 147.655 0.002C147.296 0 146.931 0.00013 146.571 0.00013Z" fill="black"/>
<path id="Vector_2" d="M8.44487 39.125C8.14019 39.125 7.84282 39.1211 7.54058 39.1143C6.91436 39.1061 6.2896 39.0516 5.67144 38.9512C5.09503 38.8519 4.53664 38.6673 4.0147 38.4033C3.49754 38.1415 3.02585 37.7983 2.6177 37.3867C2.20364 36.98 1.85891 36.5082 1.59719 35.9902C1.33258 35.4688 1.14945 34.9099 1.05419 34.333C0.951311 33.7131 0.895651 33.0863 0.887687 32.458C0.881347 32.2471 0.873047 31.5449 0.873047 31.5449V8.44434C0.873047 8.44434 0.881887 7.75293 0.887737 7.5498C0.895362 6.92248 0.950699 6.29665 1.05327 5.67773C1.14871 5.09925 1.33197 4.53875 1.59673 4.01563C1.85749 3.49794 2.2003 3.02586 2.61187 2.61768C3.02297 2.20562 3.49617 1.8606 4.01421 1.59521C4.53495 1.33209 5.09228 1.14873 5.66753 1.05127C6.28772 0.949836 6.91465 0.894996 7.54304 0.88721L8.44536 0.875H147.65L148.563 0.8877C149.186 0.895099 149.807 0.94945 150.422 1.05029C151.003 1.14898 151.566 1.33362 152.093 1.59814C153.131 2.13299 153.975 2.97916 154.508 4.01807C154.768 4.53758 154.949 5.09351 155.043 5.66699C155.147 6.29099 155.205 6.92174 155.217 7.5542C155.22 7.8374 155.22 8.1416 155.22 8.44434C155.228 8.81934 155.228 9.17627 155.228 9.53613V30.4648C155.228 30.8281 155.228 31.1826 155.22 31.54C155.22 31.8652 155.22 32.1631 155.216 32.4697C155.204 33.0909 155.147 33.7104 155.045 34.3232C154.952 34.9043 154.769 35.4675 154.505 35.9932C154.241 36.5056 153.899 36.9733 153.489 37.3789C153.081 37.7927 152.608 38.1379 152.09 38.4014C151.565 38.6674 151.002 38.8527 150.422 38.9512C149.804 39.0522 149.179 39.1067 148.553 39.1143C148.26 39.1211 147.953 39.125 147.655 39.125L146.571 39.127L8.44487 39.125Z" fill="white"/>
</g>
<g id="Group_3">
<path id="Vector_3" d="M46.1494 30.4946V21.3545H46.0889L42.3457 30.3999H40.917L37.1641 21.3545H37.1045V30.4946H35.3486V18.0762H37.5781L41.5967 27.8784H41.665L45.6758 18.0762H47.9131V30.4946H46.1494Z" fill="black"/>
<path id="Vector_4" d="M49.3965 27.9224C49.3965 26.3394 50.6094 25.3833 52.7617 25.2544L55.2402 25.1162V24.4277C55.2402 23.4209 54.5771 22.8525 53.4492 22.8525C53.0315 22.797 52.6078 22.8958 52.2577 23.1304C51.9076 23.3651 51.6552 23.7194 51.5479 24.1269H49.8096C49.8613 22.4912 51.3848 21.3301 53.501 21.3301C55.6612 21.3301 57.0899 22.5088 57.0899 24.2901V30.4956H55.3086V29.0064H55.2656C54.9803 29.5113 54.5646 29.9304 54.062 30.2197C53.5593 30.509 52.9881 30.6579 52.4082 30.6509C52.0273 30.6882 51.6429 30.6454 51.2795 30.5252C50.9162 30.4051 50.5819 30.2103 50.2983 29.9534C50.0147 29.6964 49.788 29.383 49.6326 29.0333C49.4773 28.6835 49.3969 28.3051 49.3965 27.9224ZM55.2402 27.105V26.4077L53.0107 26.5454C51.9004 26.6148 51.2725 27.0962 51.2725 27.8706C51.2725 28.6626 51.9268 29.1792 52.9248 29.1792C53.2139 29.1988 53.5039 29.1604 53.7779 29.0661C54.0518 28.9719 54.3041 28.8237 54.5199 28.6304C54.7357 28.4371 54.9106 28.2025 55.0344 27.9405C55.1581 27.6786 55.2281 27.3945 55.2402 27.105Z" fill="black"/>
<path id="Vector_5" d="M64.8936 24.556C64.8123 24.0608 64.5478 23.6142 64.1524 23.305C63.7571 22.9958 63.26 22.8466 62.7598 22.8871C61.3311 22.8871 60.3848 24.0834 60.3848 25.9686C60.3848 27.8964 61.3398 29.0575 62.7764 29.0575C63.2699 29.1069 63.7638 28.9662 64.1572 28.6641C64.5506 28.3619 64.814 27.9211 64.8936 27.4315H66.6836C66.5722 28.3677 66.0998 29.2235 65.3669 29.8166C64.6341 30.4098 63.6986 30.6934 62.7598 30.6073C60.1778 30.6073 58.4912 28.8426 58.4912 25.9686C58.4912 23.1537 60.1777 21.3294 62.7422 21.3294C63.688 21.2492 64.6277 21.5417 65.3609 22.1445C66.0941 22.7472 66.5628 23.6126 66.667 24.556L64.8936 24.556Z" fill="black"/>
<path id="Vector_6" d="M78.7598 27.1382H74.0264L72.8896 30.4946H70.8848L75.3682 18.0762H77.4512L81.9346 30.4946H79.8955L78.7598 27.1382ZM74.5166 25.5894H78.2686L76.419 20.1416H76.3672L74.5166 25.5894Z" fill="black"/>
<path id="Vector_7" d="M91.6172 25.968C91.6172 28.7815 90.1113 30.5891 87.8389 30.5891C87.2632 30.6192 86.6907 30.4866 86.1869 30.2064C85.6831 29.9263 85.2684 29.51 84.9902 29.0051H84.9472V33.4894H83.0889V21.4401H84.8877V22.946H84.9219C85.2128 22.4435 85.6346 22.0294 86.1422 21.7475C86.6498 21.4657 87.2244 21.3267 87.8047 21.3454C90.1025 21.3454 91.6172 23.1618 91.6172 25.968ZM89.707 25.968C89.707 24.1345 88.7598 22.9294 87.3144 22.9294C85.8945 22.9294 84.9394 24.1599 84.9394 25.968C84.9394 27.7922 85.8945 29.0139 87.3144 29.0139C88.7598 29.0139 89.707 27.8176 89.707 25.968Z" fill="black"/>
<path id="Vector_8" d="M101.582 25.968C101.582 28.7815 100.076 30.5891 97.8037 30.5891C97.2281 30.6192 96.6556 30.4866 96.1518 30.2064C95.648 29.9263 95.2333 29.51 94.9551 29.0051H94.9121V33.4894H93.0537V21.4401H94.8525V22.946H94.8867C95.1777 22.4435 95.5994 22.0294 96.107 21.7475C96.6147 21.4657 97.1892 21.3267 97.7695 21.3454C100.067 21.3454 101.582 23.1618 101.582 25.968ZM99.6719 25.968C99.6719 24.1345 98.7246 22.9294 97.2793 22.9294C95.8594 22.9294 94.9043 24.1599 94.9043 25.968C94.9043 27.7922 95.8594 29.0139 97.2793 29.0139C98.7246 29.0139 99.6719 27.8176 99.6719 25.968Z" fill="black"/>
<path id="Vector_9" d="M108.168 27.0347C108.306 28.2662 109.502 29.0747 111.137 29.0747C112.703 29.0747 113.83 28.2661 113.83 27.1558C113.83 26.1919 113.15 25.6148 111.541 25.2192L109.932 24.8311C107.651 24.2803 106.593 23.2139 106.593 21.4834C106.593 19.3408 108.46 17.8691 111.111 17.8691C113.735 17.8691 115.534 19.3408 115.595 21.4834H113.719C113.606 20.2441 112.582 19.4961 111.085 19.4961C109.588 19.4961 108.563 20.2529 108.563 21.3545C108.563 22.2324 109.218 22.749 110.818 23.1445L112.187 23.4804C114.734 24.083 115.793 25.1064 115.793 26.9233C115.793 29.2466 113.942 30.7016 110.999 30.7016C108.245 30.7016 106.386 29.2807 106.266 27.0346L108.168 27.0347Z" fill="black"/>
<path id="Vector_10" d="M119.804 19.2988V21.4414H121.525V22.9131H119.804V27.9048C119.804 28.6802 120.148 29.0415 120.905 29.0415C121.11 29.0379 121.314 29.0236 121.517 28.9985V30.4614C121.176 30.525 120.83 30.5538 120.484 30.5473C118.651 30.5473 117.937 29.8589 117.937 28.103V22.913H116.62V21.4414H117.937V19.2988H119.804Z" fill="black"/>
<path id="Vector_11" d="M122.521 25.9692C122.521 23.1201 124.199 21.3301 126.815 21.3301C129.44 21.3301 131.11 23.1201 131.11 25.9692C131.11 28.8257 129.449 30.6079 126.815 30.6079C124.183 30.6079 122.521 28.8257 122.521 25.9692ZM129.217 25.9692C129.217 24.0146 128.321 22.8613 126.815 22.8613C125.31 22.8613 124.414 24.0234 124.414 25.9692C124.414 27.9311 125.31 29.0757 126.815 29.0757C128.321 29.0757 129.217 27.9311 129.217 25.9692Z" fill="black"/>
<path id="Vector_12" d="M132.643 21.4401H134.415V22.9811H134.458C134.578 22.4998 134.86 22.0744 135.257 21.7766C135.653 21.4787 136.14 21.3264 136.636 21.3453C136.85 21.3446 137.064 21.3678 137.272 21.4147V23.1529C137.002 23.0703 136.72 23.0324 136.438 23.0406C136.168 23.0297 135.898 23.0773 135.649 23.1802C135.399 23.2831 135.174 23.4388 134.99 23.6367C134.806 23.8346 134.667 24.0699 134.583 24.3266C134.498 24.5833 134.47 24.8552 134.501 25.1236V30.4943H132.643V21.4401Z" fill="black"/>
<path id="Vector_13" d="M145.841 27.8364C145.591 29.48 143.99 30.6079 141.942 30.6079C139.309 30.6079 137.674 28.8433 137.674 26.0122C137.674 23.1719 139.317 21.3301 141.864 21.3301C144.369 21.3301 145.944 23.0508 145.944 25.7964V26.4331H139.55V26.5454C139.52 26.8786 139.562 27.2143 139.672 27.5301C139.782 27.846 139.958 28.1347 140.189 28.3773C140.419 28.6198 140.699 28.8106 141.008 28.9369C141.318 29.0632 141.651 29.1222 141.985 29.1099C142.425 29.151 142.865 29.0493 143.242 28.8199C143.619 28.5904 143.911 28.2455 144.076 27.8364L145.841 27.8364ZM139.559 25.1338H144.085C144.102 24.8342 144.056 24.5344 143.952 24.2532C143.847 23.972 143.685 23.7154 143.477 23.4997C143.268 23.2839 143.017 23.1136 142.74 22.9993C142.462 22.8851 142.164 22.8295 141.864 22.8359C141.562 22.8341 141.262 22.8923 140.982 23.007C140.702 23.1218 140.447 23.2908 140.233 23.5045C140.018 23.7181 139.848 23.9721 139.733 24.2517C139.617 24.5314 139.558 24.8312 139.559 25.1338Z" fill="black"/>
</g>
<g id="Group_4">
<g id="&#60;Group&#62;">
<g id="&#60;Group&#62;_2">
<g id="&#60;Group&#62;_3">
<path id="&#60;Path&#62;" d="M24.997 19.8907C25.0082 19.0227 25.2388 18.1717 25.6672 17.4168C26.0957 16.6618 26.7081 16.0276 27.4476 15.573C26.9779 14.9021 26.3581 14.3499 25.6377 13.9604C24.9172 13.5709 24.1158 13.3548 23.2972 13.3292C21.551 13.1459 19.8581 14.3741 18.9682 14.3741C18.0612 14.3741 16.6911 13.3474 15.2158 13.3777C14.2615 13.4086 13.3314 13.6861 12.5163 14.1832C11.7011 14.6803 11.0287 15.3801 10.5644 16.2144C8.55327 19.6964 10.0534 24.8138 11.9799 27.6284C12.9438 29.0067 14.0703 30.5462 15.5443 30.4916C16.9867 30.4318 17.5254 29.5718 19.2665 29.5718C20.9914 29.5718 21.4968 30.4916 23.0007 30.4569C24.5485 30.4318 25.5237 29.0725 26.4537 27.6813C27.1463 26.6992 27.6792 25.6139 28.0327 24.4654C27.1335 24.085 26.3662 23.4484 25.8263 22.6349C25.2865 21.8214 24.9981 20.867 24.997 19.8907Z" fill="black"/>
<path id="&#60;Path&#62;_2" d="M22.1563 11.4775C23.0003 10.4645 23.416 9.16233 23.3153 7.84766C22.026 7.98307 20.8351 8.59927 19.9798 9.57348C19.5616 10.0494 19.2413 10.6031 19.0372 11.2029C18.8332 11.8026 18.7493 12.4368 18.7905 13.069C19.4353 13.0756 20.0733 12.9358 20.6563 12.6602C21.2394 12.3845 21.7522 11.9802 22.1563 11.4775Z" fill="black"/>
</g>
</g>
</g>
<g id="&#60;Group&#62;_4">
<g id="Group_5">
<path id="Vector_14" d="M37.8262 8.73138C38.2158 8.70342 38.6067 8.76228 38.9709 8.90371C39.335 9.04515 39.6632 9.26563 39.9317 9.54925C40.2003 9.83288 40.4026 10.1726 40.524 10.5438C40.6454 10.9151 40.6829 11.3087 40.6338 11.6962C40.6338 13.6025 39.6035 14.6982 37.8262 14.6982H35.6709V8.73138H37.8262ZM36.5976 13.8544H37.7226C38.0011 13.871 38.2797 13.8254 38.5382 13.7208C38.7967 13.6161 39.0287 13.4552 39.2172 13.2496C39.4057 13.0441 39.546 12.7991 39.6278 12.5324C39.7097 12.2658 39.7311 11.9843 39.6904 11.7084C39.7281 11.4335 39.7046 11.1538 39.6215 10.8891C39.5383 10.6244 39.3977 10.3814 39.2096 10.1775C39.0216 9.97358 38.7907 9.81378 38.5337 9.70954C38.2766 9.6053 37.9996 9.55922 37.7226 9.57459H36.5976V13.8544Z" fill="black"/>
<path id="Vector_15" d="M41.6809 12.4458C41.6526 12.1498 41.6865 11.8513 41.7803 11.5692C41.8742 11.2871 42.0259 11.0278 42.2259 10.8078C42.4258 10.5878 42.6695 10.4121 42.9414 10.2918C43.2132 10.1715 43.5072 10.1094 43.8045 10.1094C44.1017 10.1094 44.3957 10.1715 44.6676 10.2918C44.9394 10.4121 45.1831 10.5878 45.3831 10.8078C45.583 11.0278 45.7348 11.2871 45.8286 11.5692C45.9225 11.8513 45.9563 12.1498 45.928 12.4458C45.9569 12.742 45.9234 13.041 45.8298 13.3235C45.7362 13.606 45.5846 13.8658 45.3846 14.0862C45.1846 14.3067 44.9407 14.4828 44.6686 14.6033C44.3964 14.7239 44.1021 14.7861 43.8045 14.7861C43.5069 14.7861 43.2125 14.7239 42.9404 14.6033C42.6683 14.4828 42.4244 14.3067 42.2244 14.0862C42.0244 13.8658 41.8727 13.606 41.7791 13.3235C41.6855 13.041 41.6521 12.742 41.6809 12.4458ZM45.0139 12.4458C45.0139 11.4697 44.5755 10.8989 43.8059 10.8989C43.0335 10.8989 42.5989 11.4697 42.5989 12.4458C42.5989 13.4297 43.0335 13.9961 43.8059 13.9961C44.5755 13.996 45.0139 13.4257 45.0139 12.4458Z" fill="black"/>
<path id="Vector_16" d="M51.5732 14.6982H50.6514L49.7207 11.3818H49.6504L48.7236 14.6982H47.8105L46.5693 10.1953H47.4707L48.2773 13.6313H48.3438L49.2695 10.1953H50.1221L51.0479 13.6313H51.1182L51.9209 10.1953H52.8096L51.5732 14.6982Z" fill="black"/>
<path id="Vector_17" d="M53.8535 10.1949H54.709V10.9102H54.7754C54.888 10.6533 55.0781 10.4379 55.3189 10.2941C55.5598 10.1503 55.8395 10.0852 56.1191 10.1079C56.3382 10.0915 56.5582 10.1245 56.7628 10.2046C56.9674 10.2847 57.1514 10.4098 57.3011 10.5707C57.4508 10.7315 57.5623 10.924 57.6275 11.1338C57.6927 11.3436 57.7099 11.5654 57.6777 11.7827V14.6977H56.7891V12.0059C56.7891 11.2823 56.4746 10.9224 55.8174 10.9224C55.6686 10.9155 55.5201 10.9408 55.3821 10.9966C55.244 11.0525 55.1197 11.1375 55.0175 11.2459C54.9154 11.3543 54.8379 11.4834 54.7904 11.6246C54.7429 11.7657 54.7264 11.9154 54.7422 12.0635V14.6978H53.8535L53.8535 10.1949Z" fill="black"/>
<path id="Vector_18" d="M59.0938 8.4375H59.9824V14.6982H59.0938V8.4375Z" fill="black"/>
<path id="Vector_19" d="M61.2181 12.4458C61.1897 12.1498 61.2236 11.8513 61.3174 11.5692C61.4113 11.2871 61.563 11.0278 61.763 10.8078C61.9629 10.5878 62.2066 10.4121 62.4785 10.2918C62.7503 10.1715 63.0443 10.1094 63.3416 10.1094C63.6389 10.1094 63.9328 10.1715 64.2047 10.2918C64.4765 10.4121 64.7203 10.5878 64.9202 10.8078C65.1201 11.0278 65.2719 11.2871 65.3657 11.5692C65.4596 11.8513 65.4934 12.1498 65.4651 12.4458C65.494 12.742 65.4605 13.041 65.3669 13.3235C65.2733 13.606 65.1217 13.8658 64.9217 14.0862C64.7217 14.3067 64.4778 14.4828 64.2057 14.6033C63.9335 14.7239 63.6392 14.7861 63.3416 14.7861C63.044 14.7861 62.7496 14.7239 62.4775 14.6033C62.2054 14.4828 61.9615 14.3067 61.7615 14.0862C61.5615 13.8658 61.4098 13.606 61.3162 13.3235C61.2227 13.041 61.1892 12.742 61.2181 12.4458ZM64.5511 12.4458C64.5511 11.4697 64.1126 10.8989 63.3431 10.8989C62.5706 10.8989 62.1361 11.4697 62.1361 12.4458C62.1361 13.4297 62.5706 13.9961 63.3431 13.9961C64.1126 13.996 64.5511 13.4257 64.5511 12.4458Z" fill="black"/>
<path id="Vector_20" d="M66.4004 13.4258C66.4004 12.6152 67.0039 12.1479 68.0752 12.0815L69.2949 12.0112V11.6226C69.2949 11.147 68.9805 10.8784 68.373 10.8784C67.877 10.8784 67.5332 11.0605 67.4346 11.3789H66.5742C66.665 10.6055 67.3926 10.1094 68.4141 10.1094C69.543 10.1094 70.1797 10.6714 70.1797 11.6226V14.6992H69.3242V14.0664H69.2539C69.1112 14.2934 68.9108 14.4784 68.6732 14.6027C68.4355 14.7269 68.1692 14.7858 67.9014 14.7734C67.7123 14.7931 67.5213 14.7729 67.3405 14.7142C67.1598 14.6555 66.9933 14.5596 66.8519 14.4326C66.7105 14.3056 66.5972 14.1504 66.5195 13.977C66.4417 13.8036 66.4011 13.6158 66.4004 13.4258ZM69.2949 13.041V12.6645L68.1953 12.7349C67.5752 12.7764 67.2939 12.9873 67.2939 13.3843C67.2939 13.7895 67.6455 14.0254 68.1289 14.0254C68.2706 14.0397 68.4137 14.0254 68.5497 13.9833C68.6857 13.9412 68.8118 13.8722 68.9206 13.7804C69.0294 13.6885 69.1186 13.5757 69.1829 13.4487C69.2472 13.3217 69.2853 13.183 69.2949 13.041Z" fill="black"/>
<path id="Vector_21" d="M71.3477 12.4448C71.3477 11.022 72.0791 10.1206 73.2168 10.1206C73.4982 10.1077 73.7775 10.1751 74.022 10.315C74.2666 10.4548 74.4662 10.6615 74.5977 10.9106H74.6641V8.4375H75.5527V14.6982H74.7012V13.9868H74.6309C74.4893 14.2343 74.2826 14.4383 74.0334 14.5768C73.7841 14.7153 73.5017 14.783 73.2168 14.7724C72.0713 14.7725 71.3477 13.8711 71.3477 12.4448ZM72.2657 12.4448C72.2657 13.3999 72.7159 13.9746 73.4688 13.9746C74.2178 13.9746 74.6807 13.3916 74.6807 12.4487C74.6807 11.5103 74.2129 10.919 73.4688 10.919C72.7207 10.919 72.2657 11.4976 72.2657 12.4448Z" fill="black"/>
<path id="Vector_22" d="M79.2297 12.4439C79.2015 12.1479 79.2353 11.8494 79.3292 11.5673C79.4231 11.2852 79.5748 11.0259 79.7748 10.8059C79.9748 10.5859 80.2185 10.4101 80.4904 10.2898C80.7622 10.1696 81.0562 10.1074 81.3535 10.1074C81.6508 10.1074 81.9448 10.1696 82.2167 10.2898C82.4886 10.4101 82.7323 10.5859 82.9323 10.8059C83.1322 11.0259 83.284 11.2852 83.3779 11.5673C83.4717 11.8494 83.5056 12.1479 83.4773 12.4439C83.5061 12.7401 83.4726 13.0391 83.379 13.3216C83.2854 13.6042 83.1337 13.864 82.9337 14.0844C82.7337 14.3048 82.4898 14.4809 82.2176 14.6014C81.9455 14.722 81.6512 14.7842 81.3535 14.7842C81.0559 14.7842 80.7616 14.722 80.4894 14.6014C80.2173 14.4809 79.9734 14.3048 79.7734 14.0844C79.5734 13.864 79.4217 13.6042 79.328 13.3216C79.2344 13.0391 79.2009 12.7401 79.2297 12.4439ZM82.5627 12.4439C82.5627 11.4678 82.1243 10.897 81.3547 10.897C80.5823 10.897 80.1477 11.4678 80.1477 12.4439C80.1477 13.4278 80.5823 13.9942 81.3547 13.9942C82.1242 13.9942 82.5627 13.4239 82.5627 12.4439Z" fill="black"/>
<path id="Vector_23" d="M84.6689 10.1949H85.5244V10.9102H85.5908C85.7035 10.6533 85.8935 10.4379 86.1344 10.2941C86.3752 10.1503 86.655 10.0852 86.9346 10.1079C87.1537 10.0915 87.3737 10.1245 87.5783 10.2046C87.7829 10.2847 87.9668 10.4098 88.1165 10.5707C88.2662 10.7315 88.3778 10.924 88.443 11.1338C88.5082 11.3436 88.5253 11.5654 88.4932 11.7827V14.6977H87.6045V12.0059C87.6045 11.2823 87.2901 10.9224 86.6328 10.9224C86.4841 10.9155 86.3356 10.9408 86.1975 10.9966C86.0594 11.0525 85.9351 11.1375 85.833 11.2459C85.7308 11.3543 85.6534 11.4834 85.6058 11.6246C85.5583 11.7657 85.5419 11.9154 85.5576 12.0635V14.6978H84.6689V10.1949Z" fill="black"/>
<path id="Vector_24" d="M93.5146 9.07422V10.2158H94.4902V10.9644H93.5146V13.2798C93.5146 13.7515 93.709 13.958 94.1514 13.958C94.2646 13.9576 94.3778 13.9508 94.4902 13.9375V14.6777C94.3307 14.7063 94.169 14.7215 94.0068 14.7231C93.0186 14.7231 92.625 14.3755 92.625 13.5073V10.9643H91.9102V10.2158H92.625V9.07422H93.5146Z" fill="black"/>
<path id="Vector_25" d="M95.7051 8.4375H96.5859V10.919H96.6562C96.7744 10.6596 96.9696 10.443 97.2153 10.2987C97.461 10.1543 97.7452 10.0893 98.0292 10.1123C98.2472 10.1004 98.4651 10.1368 98.6674 10.2189C98.8697 10.3009 99.0513 10.4266 99.1995 10.5869C99.3476 10.7473 99.4585 10.9383 99.5243 11.1465C99.5901 11.3546 99.6091 11.5747 99.58 11.791V14.6982H98.6905V12.0103C98.6905 11.291 98.3555 10.9268 97.7276 10.9268C97.5748 10.9142 97.4212 10.9352 97.2774 10.9883C97.1337 11.0413 97.0032 11.1252 96.8952 11.2339C96.7872 11.3426 96.7043 11.4737 96.6522 11.6178C96.6002 11.7619 96.5802 11.9157 96.5938 12.0683V14.6982H95.7051L95.7051 8.4375Z" fill="black"/>
<path id="Vector_26" d="M104.761 13.4815C104.641 13.8931 104.379 14.249 104.022 14.4872C103.666 14.7253 103.237 14.8305 102.81 14.7842C102.514 14.7921 102.219 14.7353 101.946 14.6177C101.674 14.5002 101.43 14.3248 101.232 14.1036C101.034 13.8825 100.887 13.6209 100.8 13.3371C100.713 13.0533 100.69 12.754 100.73 12.46C100.691 12.1652 100.715 11.8652 100.801 11.5805C100.888 11.2959 101.035 11.0331 101.231 10.81C101.428 10.587 101.671 10.4088 101.943 10.2876C102.214 10.1664 102.509 10.105 102.806 10.1075C104.059 10.1075 104.815 10.9635 104.815 12.3775V12.6876H101.635V12.7374C101.621 12.9026 101.642 13.069 101.696 13.2257C101.751 13.3825 101.837 13.5262 101.95 13.6476C102.063 13.7691 102.2 13.8656 102.352 13.931C102.504 13.9964 102.669 14.0292 102.835 14.0274C103.047 14.0529 103.263 14.0146 103.453 13.9174C103.644 13.8202 103.802 13.6685 103.906 13.4815L104.761 13.4815ZM101.635 12.0303H103.91C103.921 11.8792 103.9 11.7274 103.85 11.5847C103.799 11.442 103.718 11.3115 103.614 11.2016C103.51 11.0918 103.383 11.005 103.243 10.9468C103.103 10.8886 102.953 10.8604 102.801 10.8638C102.648 10.8619 102.495 10.8908 102.353 10.9487C102.21 11.0067 102.081 11.0925 101.972 11.2012C101.864 11.3099 101.778 11.4393 101.72 11.5817C101.662 11.7241 101.633 11.8766 101.635 12.0303Z" fill="black"/>
</g>
</g>
</g>
</g>
</g>
<defs>
<clipPath id="clip0_8029_6683">
<rect width="156.101" height="40" fill="white"/>
</clipPath>
</defs>
</svg>
